<svg width="18" height="18" viewBox="0 0 18 18" fill="none" xmlns="http://www.w3.org/2000/svg">
<path fill-rule="evenodd" clip-rule="evenodd" d="M15.338 15.338H12.67V11.16C12.67 10.165 12.653 8.883 11.283 8.883C9.893 8.883 9.682 9.969 9.682 11.09V15.338H7.014V6.748H9.573V7.922H9.61C9.966 7.247 10.837 6.535 12.136 6.535C14.839 6.535 15.339 8.313 15.339 10.627V15.338H15.338ZM4.005 5.575C3.80171 5.5752 3.60038 5.53535 3.41249 5.45774C3.2246 5.38013 3.05384 5.26627 2.90996 5.12266C2.76607 4.97906 2.65188 4.80852 2.57391 4.62078C2.49593 4.43304 2.4557 4.23179 2.4555 4.0285C2.4553 3.82521 2.49515 3.62388 2.57276 3.43599C2.65037 3.2481 2.76423 3.07734 2.90784 2.93346C3.05144 2.78957 3.22198 2.67538 3.40972 2.59741C3.59746 2.51943 3.79871 2.4792 4.002 2.479C4.41255 2.4786 4.80645 2.64131 5.09704 2.93134C5.38763 3.22136 5.5511 3.61494 5.5515 4.0255C5.5519 4.43606 5.38919 4.82995 5.09916 5.12054C4.80914 5.41113 4.41556 5.5746 4.005 5.575ZM2.668 15.338H5.34V6.748H2.667V15.338H2.668ZM16.668 0H1.328C0.595 0 0 0.581 0 1.298V16.701C0 17.418 0.595 18 1.328 18H16.668C17.402 18 18 17.418 18 16.701V1.298C18 0.581 17.402 0 16.668 0Z" fill="white"/>
</svg>
