<svg width="240" height="73" viewBox="0 0 240 73" fill="none" xmlns="http://www.w3.org/2000/svg">
<g clip-path="url(#clip0_211_6415)">
<path d="M146.711 21.3169H146.282V68.8005H146.711V21.3169Z" fill="#232323"/>
<path d="M82.3698 32.2765L77.1742 25.1281V32.2765H74.8546V21.3169H77.2402L82.2896 28.1998V21.3169H84.6092V32.2765H82.3698Z" fill="#2D2E2D"/>
<path d="M91.4596 32.2764V31.4374C90.9222 32.0963 89.9887 32.4708 88.9609 32.4708C87.7021 32.4708 86.2311 31.6175 86.2311 29.8399C86.2311 27.9675 87.7021 27.2754 88.9609 27.2754C90.0217 27.2754 90.9363 27.6215 91.4596 28.2472V27.247C91.4596 26.4411 90.7713 25.915 89.7294 25.915C88.8949 25.915 88.1122 26.242 87.4569 26.8488L86.6365 25.3888C87.603 24.5166 88.843 24.1421 90.0877 24.1421C91.9028 24.1421 93.5529 24.8674 93.5529 27.1474V32.2717H91.4596V32.2764ZM91.4596 30.3708V29.3849C91.1155 28.9251 90.4601 28.6786 89.7906 28.6786C88.9703 28.6786 88.3008 29.1241 88.3008 29.8779C88.3008 30.6316 88.9703 31.0582 89.7906 31.0582C90.4601 31.0582 91.1108 30.8307 91.4596 30.3708Z" fill="#2D2E2D"/>
<path d="M96.0187 30.2901V26.166H94.7128V24.341H96.0187V22.1699H98.0979V24.341H99.7009V26.166H98.0979V29.7307C98.0979 30.2379 98.3572 30.6171 98.8192 30.6171C99.1304 30.6171 99.4227 30.5034 99.5406 30.3706L99.979 31.9634C99.6679 32.2431 99.1115 32.4753 98.2488 32.4753C96.7966 32.4753 96.0234 31.7216 96.0234 30.2901H96.0187Z" fill="#2D2E2D"/>
<path d="M100.927 22.2364C100.927 21.549 101.483 21.0039 102.152 21.0039C102.822 21.0039 103.397 21.5443 103.397 22.2364C103.397 22.9285 102.841 23.4878 102.152 23.4878C101.464 23.4878 100.927 22.9285 100.927 22.2364ZM101.125 32.2763V24.3411H103.199V32.2763H101.125Z" fill="#2D2E2D"/>
<path d="M104.75 28.2993C104.75 26.0477 106.32 24.1421 108.918 24.1421C111.516 24.1421 113.1 26.0477 113.1 28.2993C113.1 30.551 111.53 32.4755 108.918 32.4755C106.306 32.4755 104.75 30.551 104.75 28.2993ZM110.945 28.2993C110.945 27.0669 110.224 26.0003 108.918 26.0003C107.612 26.0003 106.91 27.0669 106.91 28.2993C106.91 29.5318 107.631 30.6173 108.918 30.6173C110.205 30.6173 110.945 29.5508 110.945 28.2993Z" fill="#2D2E2D"/>
<path d="M119.983 32.2761V27.4789C119.983 26.3792 119.408 25.9999 118.526 25.9999C117.711 25.9999 117.089 26.4597 116.73 26.9196V32.2761H114.656V24.3408H116.73V25.36C117.239 24.7675 118.215 24.1465 119.493 24.1465C121.242 24.1465 122.077 25.1325 122.077 26.6778V32.2808H119.983V32.2761Z" fill="#2D2E2D"/>
<path d="M128.856 32.2764V31.4374C128.319 32.0963 127.385 32.4708 126.357 32.4708C125.099 32.4708 123.628 31.6175 123.628 29.8399C123.628 27.9675 125.099 27.2754 126.357 27.2754C127.418 27.2754 128.333 27.6215 128.856 28.2472V27.247C128.856 26.4411 128.173 25.915 127.126 25.915C126.291 25.915 125.509 26.242 124.853 26.8488L124.038 25.3888C125.004 24.5166 126.244 24.1421 127.484 24.1421C129.299 24.1421 130.95 24.8674 130.95 27.1474V32.2717H128.856V32.2764ZM128.856 30.3708V29.3849C128.512 28.9251 127.861 28.6786 127.187 28.6786C126.372 28.6786 125.702 29.1241 125.702 29.8779C125.702 30.6316 126.372 31.0582 127.187 31.0582C127.857 31.0582 128.512 30.8307 128.856 30.3708Z" fill="#2D2E2D"/>
<path d="M132.996 32.2765V21.3169H135.07V32.2765H132.996Z" fill="#2D2E2D"/>
<path d="M82.3226 50.5265V45.9094H77.1742V50.5265H74.8546V39.5669H77.1742V43.8711H82.3226V39.5669H84.6611V50.5265H82.3226Z" fill="#2D2E2D"/>
<path d="M86.2452 46.5493C86.2452 44.2977 87.8152 42.3921 90.413 42.3921C93.0108 42.3921 94.5949 44.2977 94.5949 46.5493C94.5949 48.801 93.0249 50.7255 90.413 50.7255C87.8011 50.7255 86.2452 48.801 86.2452 46.5493ZM92.4403 46.5493C92.4403 45.3169 91.719 44.2503 90.413 44.2503C89.107 44.2503 88.4046 45.3169 88.4046 46.5493C88.4046 47.7818 89.1259 48.8673 90.413 48.8673C91.7001 48.8673 92.4403 47.8008 92.4403 46.5493Z" fill="#2D2E2D"/>
<path d="M101.478 50.5266V49.5264C100.941 50.1189 99.9932 50.7257 98.7014 50.7257C96.9711 50.7257 96.1508 49.7729 96.1508 48.2275V42.5913H98.2252V47.4075C98.2252 48.5072 98.8004 48.8722 99.682 48.8722C100.484 48.8722 101.12 48.4266 101.478 47.9668V42.5913H103.553V50.5266H101.478Z" fill="#2D2E2D"/>
<path d="M104.929 49.4931L105.83 47.9809C106.419 48.5403 107.579 49.0807 108.56 49.0807C109.46 49.0807 109.885 48.7346 109.885 48.2416C109.885 46.9428 105.212 48.0141 105.212 44.8902C105.212 43.5582 106.358 42.3921 108.447 42.3921C109.771 42.3921 110.832 42.8519 111.62 43.4776L110.785 44.9566C110.309 44.4636 109.413 44.037 108.447 44.037C107.697 44.037 107.207 44.3641 107.207 44.8096C107.207 45.9758 111.898 44.9898 111.898 48.1942C111.898 49.659 110.653 50.7255 108.465 50.7255C107.093 50.7255 105.769 50.2657 104.934 49.4931H104.929Z" fill="#2D2E2D"/>
<path d="M113.218 40.4864C113.218 39.799 113.774 39.2539 114.444 39.2539C115.113 39.2539 115.688 39.7943 115.688 40.4864C115.688 41.1785 115.132 41.7378 114.444 41.7378C113.755 41.7378 113.218 41.1785 113.218 40.4864ZM113.416 50.5263V42.5911H115.49V50.5263H113.416Z" fill="#2D2E2D"/>
<path d="M122.873 50.5266V45.7294C122.873 44.6297 122.303 44.2504 121.421 44.2504C120.601 44.2504 119.983 44.7102 119.625 45.17V50.5266H117.551V42.5913H119.625V43.6105C120.129 43.018 121.11 42.397 122.388 42.397C124.137 42.397 124.967 43.383 124.967 44.9283V50.5313H122.873V50.5266Z" fill="#2D2E2D"/>
<path d="M126.848 52.5651L127.777 51.0719C128.413 51.7639 129.262 52.0436 130.247 52.0436C131.232 52.0436 132.435 51.617 132.435 50.0053V49.2326C131.812 50.0195 130.964 50.4651 129.983 50.4651C128.022 50.4651 126.504 49.0857 126.504 46.4406C126.504 43.7955 127.993 42.4019 129.983 42.4019C130.931 42.4019 131.798 42.7953 132.435 43.6154V42.5962H134.514V50.0053C134.514 53.0106 132.19 53.7501 130.247 53.7501C128.908 53.7501 127.843 53.4373 126.848 52.5651ZM132.435 47.7205V45.1417C132.076 44.6298 131.322 44.2553 130.653 44.2553C129.46 44.2553 128.644 45.0754 128.644 46.4406C128.644 47.8058 129.46 48.6259 130.653 48.6259C131.322 48.6259 132.076 48.2324 132.435 47.7205Z" fill="#2D2E2D"/>
<path d="M74.3313 63.3061C74.3313 59.9215 76.8631 57.6367 80.1492 57.6367C82.5348 57.6367 83.9256 58.9356 84.6941 60.315L82.6998 61.301C82.2425 60.4145 81.2618 59.7082 80.1492 59.7082C78.1549 59.7082 76.7169 61.2346 76.7169 63.3061C76.7169 65.3776 78.1549 66.904 80.1492 66.904C81.2618 66.904 82.2425 66.1977 82.6998 65.3113L84.6941 66.283C83.9256 67.6482 82.5348 68.9755 80.1492 68.9755C76.8631 68.9755 74.3313 66.6765 74.3313 63.3061Z" fill="#2D2E2D"/>
<path d="M85.5286 64.8042C85.5286 62.5526 87.0985 60.647 89.6963 60.647C92.2941 60.647 93.8782 62.5526 93.8782 64.8042C93.8782 67.0559 92.3082 68.9757 89.6963 68.9757C87.0844 68.9757 85.5286 67.0511 85.5286 64.8042ZM91.7236 64.8042C91.7236 63.5717 91.0023 62.5052 89.6963 62.5052C88.3904 62.5052 87.6879 63.5717 87.6879 64.8042C87.6879 66.0367 88.4092 67.1222 89.6963 67.1222C90.9834 67.1222 91.7236 66.0557 91.7236 64.8042Z" fill="#2D2E2D"/>
<path d="M100.762 68.7813V67.7764C100.224 68.3689 99.2765 68.9757 97.9847 68.9757C96.2544 68.9757 95.4341 68.0229 95.4341 66.4775V60.8413H97.5085V65.6575C97.5085 66.7572 98.0837 67.1175 98.9654 67.1175C99.7669 67.1175 100.403 66.6766 100.762 66.2121V60.8413H102.836V68.7766H100.762V68.7813Z" fill="#2D2E2D"/>
<path d="M110.224 68.7813V63.9841C110.224 62.8844 109.653 62.5052 108.772 62.5052C107.952 62.5052 107.334 62.965 106.976 63.4248V68.7813H104.901V60.8461H106.976V61.8652C107.48 61.2727 108.461 60.647 109.738 60.647C111.487 60.647 112.317 61.633 112.317 63.1783V68.7813H110.224Z" fill="#2D2E2D"/>
<path d="M113.854 64.8042C113.854 62.3724 115.622 60.647 118.036 60.647C119.653 60.647 120.634 61.3533 121.157 62.0785L119.799 63.3632C119.422 62.8038 118.852 62.5099 118.13 62.5099C116.872 62.5099 115.99 63.4295 115.99 64.809C115.99 66.1884 116.872 67.127 118.13 67.127C118.852 67.127 119.422 66.7999 119.799 66.2547L121.157 67.5394C120.634 68.2646 119.653 68.9852 118.036 68.9852C115.618 68.9852 113.854 67.2597 113.854 64.8137V64.8042Z" fill="#2D2E2D"/>
<path d="M122.322 58.7413C122.322 58.0492 122.878 57.5088 123.548 57.5088C124.217 57.5088 124.788 58.0492 124.788 58.7413C124.788 59.4333 124.231 59.988 123.548 59.988C122.864 59.988 122.322 59.4286 122.322 58.7413ZM122.52 68.7812V60.846H124.594V68.7812H122.52Z" fill="#2D2E2D"/>
<path d="M126.65 68.7814V57.8218H128.724V68.7814H126.65Z" fill="#2D2E2D"/>
<path d="M157.469 26.8061C157.469 23.4215 160.001 21.1367 163.287 21.1367C165.673 21.1367 167.064 22.4356 167.832 23.815L165.838 24.801C165.381 23.9145 164.4 23.2082 163.287 23.2082C161.293 23.2082 159.855 24.7393 159.855 26.8061C159.855 28.8729 161.293 30.404 163.287 30.404C164.4 30.404 165.381 29.6977 165.838 28.8113L167.832 29.783C167.064 31.1482 165.673 32.4755 163.287 32.4755C160.001 32.4755 157.469 30.1765 157.469 26.8061Z" fill="#2D2E2D"/>
<path d="M168.667 28.2993C168.667 26.0477 170.237 24.1421 172.835 24.1421C175.432 24.1421 177.016 26.0477 177.016 28.2993C177.016 30.551 175.446 32.4755 172.835 32.4755C170.223 32.4755 168.667 30.551 168.667 28.2993ZM174.862 28.2993C174.862 27.0669 174.14 26.0003 172.835 26.0003C171.529 26.0003 170.826 27.0669 170.826 28.2993C170.826 29.5318 171.547 30.6173 172.835 30.6173C174.122 30.6173 174.862 29.5508 174.862 28.2993Z" fill="#2D2E2D"/>
<path d="M183.9 32.2761V27.4789C183.9 26.3792 183.329 25.9999 182.448 25.9999C181.632 25.9999 181.01 26.4597 180.651 26.9196V32.2761H178.577V24.3408H180.651V25.36C181.156 24.7675 182.137 24.1465 183.414 24.1465C185.163 24.1465 185.998 25.1325 185.998 26.6778V32.2808H183.905L183.9 32.2761Z" fill="#2D2E2D"/>
<path d="M187.351 31.2431L188.247 29.7309C188.836 30.2903 189.996 30.8307 190.977 30.8307C191.877 30.8307 192.301 30.4846 192.301 29.9916C192.301 28.6928 187.629 29.7641 187.629 26.6402C187.629 25.3082 188.775 24.1421 190.863 24.1421C192.188 24.1421 193.249 24.6019 194.036 25.2276L193.202 26.7066C192.726 26.2136 191.83 25.787 190.863 25.787C190.114 25.787 189.623 26.1141 189.623 26.5596C189.623 27.7258 194.314 26.7398 194.314 29.9442C194.314 31.409 193.07 32.4755 190.882 32.4755C189.51 32.4755 188.185 32.0157 187.351 31.2431Z" fill="#2D2E2D"/>
<path d="M195.323 28.2993C195.323 26.0003 197.021 24.1421 199.411 24.1421C201.801 24.1421 203.367 25.915 203.367 28.4937V28.9867H197.502C197.648 29.9584 198.435 30.7595 199.774 30.7595C200.444 30.7595 201.358 30.4799 201.867 29.9869L202.801 31.3663C202.018 32.0916 200.774 32.4661 199.548 32.4661C197.148 32.4661 195.333 30.8401 195.333 28.2899L195.323 28.2993ZM199.411 25.8533C198.119 25.8533 197.563 26.7587 197.483 27.5456H201.372C201.306 26.7919 200.783 25.8533 199.411 25.8533Z" fill="#2D2E2D"/>
<path d="M204.673 22.2364C204.673 21.549 205.229 21.0039 205.898 21.0039C206.568 21.0039 207.143 21.5443 207.143 22.2364C207.143 22.9285 206.587 23.4878 205.898 23.4878C205.21 23.4878 204.673 22.9285 204.673 22.2364ZM204.871 32.2763V24.3411H206.945V32.2763H204.871Z" fill="#2D2E2D"/>
<path d="M209.005 32.2765V21.3169H211.08V32.2765H209.005Z" fill="#2D2E2D"/>
<path d="M163.273 50.5266V45.7294C163.273 44.6297 162.703 44.2504 161.821 44.2504C161.005 44.2504 160.383 44.7102 160.025 45.17V50.5266H157.95V42.5913H160.025V43.6105C160.529 43.018 161.51 42.397 162.788 42.397C164.537 42.397 165.371 43.383 165.371 44.9283V50.5313H163.278L163.273 50.5266Z" fill="#2D2E2D"/>
<path d="M172.146 50.5264V49.6874C171.609 50.3463 170.675 50.7208 169.647 50.7208C168.389 50.7208 166.918 49.8675 166.918 48.0899C166.918 46.2175 168.389 45.5254 169.647 45.5254C170.708 45.5254 171.623 45.8715 172.146 46.4972V45.497C172.146 44.6911 171.458 44.165 170.416 44.165C169.581 44.165 168.799 44.492 168.143 45.0988L167.328 43.6388C168.294 42.7666 169.534 42.3921 170.774 42.3921C172.589 42.3921 174.239 43.1174 174.239 45.3974V50.5217H172.146V50.5264ZM172.146 48.6208V47.6349C171.802 47.1751 171.147 46.9286 170.477 46.9286C169.662 46.9286 168.987 47.3741 168.987 48.1279C168.987 48.8816 169.657 49.3082 170.477 49.3082C171.147 49.3082 171.802 49.0807 172.146 48.6208Z" fill="#2D2E2D"/>
<path d="M176.71 48.5405V44.4165H175.404V42.5915H176.71V40.4204H178.784V42.5915H180.387V44.4165H178.784V47.9812C178.784 48.4884 179.044 48.8676 179.506 48.8676C179.817 48.8676 180.109 48.7539 180.227 48.6211L180.67 50.2139C180.359 50.4935 179.803 50.7258 178.94 50.7258C177.488 50.7258 176.715 49.9721 176.715 48.5405H176.71Z" fill="#2D2E2D"/>
<path d="M181.613 40.4864C181.613 39.799 182.17 39.2539 182.839 39.2539C183.509 39.2539 184.084 39.7943 184.084 40.4864C184.084 41.1785 183.527 41.7378 182.839 41.7378C182.151 41.7378 181.613 41.1785 181.613 40.4864ZM181.811 50.5263V42.5911H183.886V50.5263H181.811Z" fill="#2D2E2D"/>
<path d="M185.437 46.5493C185.437 44.2977 187.007 42.3921 189.605 42.3921C192.202 42.3921 193.786 44.2977 193.786 46.5493C193.786 48.801 192.216 50.7255 189.605 50.7255C186.993 50.7255 185.437 48.801 185.437 46.5493ZM191.632 46.5493C191.632 45.3169 190.91 44.2503 189.605 44.2503C188.299 44.2503 187.596 45.3169 187.596 46.5493C187.596 47.7818 188.317 48.8673 189.605 48.8673C190.892 48.8673 191.632 47.8008 191.632 46.5493Z" fill="#2D2E2D"/>
<path d="M200.67 50.5266V45.7294C200.67 44.6297 200.099 44.2504 199.218 44.2504C198.402 44.2504 197.78 44.7102 197.421 45.17V50.5266H195.347V42.5913H197.421V43.6105C197.926 43.018 198.907 42.397 200.184 42.397C201.933 42.397 202.768 43.383 202.768 44.9283V50.5313H200.675L200.67 50.5266Z" fill="#2D2E2D"/>
<path d="M209.548 50.5264V49.6874C209.01 50.3463 208.077 50.7208 207.049 50.7208C205.79 50.7208 204.319 49.8675 204.319 48.0899C204.319 46.2175 205.79 45.5254 207.049 45.5254C208.11 45.5254 209.024 45.8715 209.548 46.4972V45.497C209.548 44.6911 208.859 44.165 207.817 44.165C206.983 44.165 206.2 44.492 205.545 45.0988L204.729 43.6388C205.696 42.7666 206.936 42.3921 208.176 42.3921C209.991 42.3921 211.641 43.1174 211.641 45.3974V50.5217H209.548V50.5264ZM209.548 48.6208V47.6349C209.203 47.1751 208.548 46.9286 207.879 46.9286C207.063 46.9286 206.393 47.3741 206.393 48.1279C206.393 48.8816 207.063 49.3082 207.879 49.3082C208.548 49.3082 209.203 49.0807 209.548 48.6208Z" fill="#2D2E2D"/>
<path d="M213.682 50.5265V39.5669H215.757V50.5265H213.682Z" fill="#2D2E2D"/>
<path d="M227.444 50.5265V49.5073C226.822 50.2942 225.973 50.7256 225.007 50.7256C223.032 50.7256 221.509 49.2134 221.509 46.5494C221.509 43.8853 222.999 42.3921 225.007 42.3921C225.94 42.3921 226.822 42.7856 227.444 43.6056V39.5669H229.538V50.5265H227.444ZM227.444 47.962V45.151C227.1 44.6248 226.351 44.2456 225.662 44.2456C224.469 44.2456 223.654 45.1794 223.654 46.5446C223.654 47.9098 224.469 48.8626 225.662 48.8626C226.351 48.8626 227.1 48.4834 227.444 47.9572V47.962Z" fill="#2D2E2D"/>
<path d="M236.926 50.5266V49.5264C236.388 50.1189 235.44 50.7257 234.149 50.7257C232.418 50.7257 231.598 49.7729 231.598 48.2275V42.5913H233.672V47.4075C233.672 48.5072 234.243 48.8722 235.125 48.8722C235.926 48.8722 236.563 48.4266 236.921 47.9668V42.5913H238.995V50.5266H236.921H236.926Z" fill="#2D2E2D"/>
<path d="M157.946 68.7814V57.8218H160.02V68.7814H157.946Z" fill="#2D2E2D"/>
<path d="M161.571 64.8042C161.571 62.5526 163.141 60.647 165.739 60.647C168.337 60.647 169.921 62.5526 169.921 64.8042C169.921 67.0559 168.351 68.9757 165.739 68.9757C163.127 68.9757 161.571 67.0511 161.571 64.8042ZM167.766 64.8042C167.766 63.5717 167.045 62.5052 165.739 62.5052C164.433 62.5052 163.731 63.5717 163.731 64.8042C163.731 66.0367 164.452 67.1222 165.739 67.1222C167.026 67.1222 167.766 66.0557 167.766 64.8042Z" fill="#2D2E2D"/>
<path d="M171.312 70.8149L172.245 69.3217C172.882 70.0091 173.73 70.2935 174.711 70.2935C175.692 70.2935 176.903 69.8669 176.903 68.2552V67.4825C176.281 68.2694 175.432 68.715 174.452 68.715C172.49 68.715 170.972 67.3355 170.972 64.6904C170.972 62.0454 172.462 60.647 174.452 60.647C175.399 60.647 176.267 61.0404 176.903 61.8652V60.8461H178.978V68.2552C178.978 71.2605 176.658 72 174.711 72C173.372 72 172.311 71.6871 171.312 70.8197V70.8149ZM176.903 65.9703V63.3869C176.545 62.8797 175.791 62.5004 175.121 62.5004C173.928 62.5004 173.113 63.3252 173.113 64.6857C173.113 66.0462 173.928 66.871 175.121 66.871C175.791 66.871 176.545 66.4775 176.903 65.9703Z" fill="#2D2E2D"/>
<path d="M180.534 64.8042C180.534 62.5052 182.236 60.647 184.621 60.647C187.007 60.647 188.577 62.4246 188.577 65.0033V65.4963H182.712C182.858 66.4681 183.645 67.2739 184.984 67.2739C185.654 67.2739 186.568 66.9942 187.077 66.5012L188.011 67.8807C187.228 68.6059 185.984 68.9804 184.758 68.9804C182.358 68.9804 180.543 67.3545 180.543 64.809L180.534 64.8042ZM184.621 62.3582C183.329 62.3582 182.773 63.2636 182.693 64.0505H186.582C186.516 63.2921 185.993 62.3582 184.621 62.3582Z" fill="#2D2E2D"/>
<path d="M199.868 68.7813V63.7708C199.868 63.0313 199.543 62.5052 198.69 62.5052C197.954 62.5052 197.351 62.9982 197.054 63.4248V68.7813H194.96V63.7708C194.96 63.0313 194.635 62.5052 193.782 62.5052C193.06 62.5052 192.457 62.9982 192.146 63.4248V68.7813H190.071V60.8461H192.146V61.8652C192.49 61.4054 193.518 60.647 194.729 60.647C195.941 60.647 196.644 61.1874 196.917 62.0785C197.374 61.3722 198.421 60.647 199.633 60.647C201.085 60.647 201.952 61.4196 201.952 63.0456V68.7813H199.859H199.868Z" fill="#2D2E2D"/>
<path d="M203.518 64.8042C203.518 62.5052 205.215 60.647 207.605 60.647C209.996 60.647 211.561 62.4246 211.561 65.0033V65.4963H205.696C205.842 66.4681 206.629 67.2739 207.968 67.2739C208.638 67.2739 209.552 66.9942 210.062 66.5012L210.995 67.8807C210.212 68.6059 208.968 68.9804 207.742 68.9804C205.342 68.9804 203.527 67.3545 203.527 64.809L203.518 64.8042ZM207.605 62.3582C206.313 62.3582 205.757 63.2636 205.677 64.0505H209.566C209.5 63.2921 208.977 62.3582 207.605 62.3582Z" fill="#2D2E2D"/>
<path d="M218.388 68.7813V63.9841C218.388 62.8844 217.817 62.5052 216.935 62.5052C216.12 62.5052 215.497 62.965 215.139 63.4248V68.7813H213.065V60.8461H215.139V61.8652C215.644 61.2727 216.624 60.647 217.902 60.647C219.651 60.647 220.486 61.633 220.486 63.1783V68.7813H218.392H218.388Z" fill="#2D2E2D"/>
<path d="M222.951 66.7905V62.6665H221.645V60.8415H222.951V58.6704H225.026V60.8415H226.629V62.6665H225.026V66.2312C225.026 66.7431 225.285 67.1176 225.747 67.1176C226.058 67.1176 226.351 67.0039 226.468 66.8711L226.912 68.4639C226.6 68.7435 226.044 68.9711 225.181 68.9711C223.729 68.9711 222.956 68.2174 222.956 66.7858L222.951 66.7905Z" fill="#2D2E2D"/>
<path d="M59.8714 21.3215L59.8667 30.9822L29.9333 11.6702V2L59.8714 21.3215Z" fill="#0F5E71"/>
<path d="M59.8714 59.1302L59.8667 68.7957L29.9333 49.479V39.8135L59.8714 59.1302Z" fill="#0F5E71"/>
<path d="M59.8714 46.5257L59.8667 56.1912L29.9333 36.8745V27.209L59.8714 46.5257Z" fill="#0F5E71"/>
<path d="M59.8714 33.926L59.8667 43.5867L29.9333 24.27V14.6045L59.8714 33.926Z" fill="#0F5E71"/>
<path d="M29.9333 2V49.4788L19.1226 56.466V50.9294H10.8201V61.8226L0 68.7956V21.3215L29.9333 2Z" fill="#083842"/>
<path d="M32.8847 65.0742L33.2666 66.1313L30.4472 65.6336C30.2775 65.6004 30.1172 65.7189 30.0889 65.8848C30.0842 65.9085 30.0842 65.9322 30.0842 65.9512L30.2304 68.7954H29.641L29.7872 65.9512C29.7919 65.7805 29.6599 65.6383 29.4854 65.6241C29.4666 65.6241 29.443 65.6241 29.4194 65.6288L26.6095 66.1266L26.9914 65.0695C27.0244 64.9842 26.9961 64.8846 26.9254 64.8277L23.8373 62.3154L24.535 61.9883C24.6341 61.9409 24.6765 61.8271 24.6435 61.7276L24.0353 59.8409L25.808 60.2249C25.907 60.2439 26.006 60.1917 26.0485 60.0969L26.3926 59.2816L27.7787 60.7795C27.8589 60.8648 27.9956 60.8648 28.0805 60.7843C28.137 60.7369 28.1559 60.661 28.1418 60.5946L27.4723 57.1247L28.5472 57.7505C28.6462 57.8073 28.7782 57.7742 28.8348 57.6699C28.8395 57.6699 28.8395 57.6651 28.8395 57.6557L29.9333 55.5083L31.0177 57.6557C31.0743 57.7599 31.2016 57.8026 31.3053 57.7552C31.3053 57.7505 31.31 57.7505 31.3194 57.7505L32.3897 57.1247L31.7202 60.5946C31.7013 60.7037 31.7768 60.8222 31.8899 60.8411C31.9653 60.8554 32.0361 60.8364 32.0879 60.7795L33.474 59.2816L33.8182 60.0969C33.8559 60.1965 33.9549 60.2439 34.0587 60.2249L35.8314 59.8409L35.2232 61.7276C35.1855 61.8271 35.2373 61.9361 35.3316 61.9883L36.0247 62.3154L32.9413 64.8277C32.8658 64.8846 32.8423 64.9842 32.8753 65.0695L32.8847 65.0742Z" fill="#ED2224"/>
</g>
<defs>
<clipPath id="clip0_211_6415">
<rect width="239" height="70" fill="white" transform="translate(0 2)"/>
</clipPath>
</defs>
</svg>
